HIERARCHY
ROOT hip
{
  OFFSET 0 0 0
  CHANNELS 6 Xposition Yposition Zposition Zrotation Yrotation Xrotation
  JOINT abdomen
  {
    OFFSET 0 20.6881 -0.73152
    CHANNELS 3 Zrotation Xrotation Yrotation
    JOINT chest
    {
      OFFSET 0 11.7043 -0.48768
      CHANNELS 3 Zrotation Xrotation Yrotation
      JOINT neck
      {
        OFFSET 0 22.1894 -2.19456
        CHANNELS 3 Zrotation Xrotation Yrotation
        JOINT head
        {
          OFFSET -0.24384 7.07133 1.2192
          CHANNELS 3 Zrotation Xrotation Yrotation
          JOINT leftEye
          {
            OFFSET 4.14528 8.04674 8.04672
            CHANNELS 3 Zrotation Xrotation Yrotation
            End Site
            {
              OFFSET 1 0 0
            }
          }
          JOINT rightEye
          {
            OFFSET -3.6576 8.04674 8.04672
            CHANNELS 3 Zrotation Xrotation Yrotation
            End Site
            {
              OFFSET 1 0 0
            }
          }
        }
      }
      JOINT rCollar
      {
        OFFSET -2.68224 19.2634 -4.8768
        CHANNELS 3 Zrotation Xrotation Yrotation
        JOINT rShldr
        {
          OFFSET -8.77824 -1.95073 1.46304
          CHANNELS 3 Zrotation Xrotation Yrotation
          JOINT rForeArm
          {
            OFFSET -28.1742 -1.7115 0.48768
            CHANNELS 3 Zrotation Xrotation Yrotation
            JOINT rHand
            {
              OFFSET -22.5879 0.773209 7.07136
              CHANNELS 3 Zrotation Xrotation Yrotation
              JOINT rThumb1
              {
                OFFSET -1.2192 -0.487915 3.41376
                CHANNELS 3 Zrotation Xrotation Yrotation
                JOINT rThumb2
                {
                  OFFSET -3.37035 -0.52449 3.41376
                  CHANNELS 3 Zrotation Xrotation Yrotation
                  End Site
                  {
                    OFFSET -1.78271 -1.18214 1.43049
                  }
                }
              }
              JOINT rIndex1
              {
                OFFSET -7.75947 0.938293 5.60832
                CHANNELS 3 Zrotation Xrotation Yrotation
                JOINT rIndex2
                {
                  OFFSET -2.54057 -0.884171 1.56538
                  CHANNELS 3 Zrotation Xrotation Yrotation
                  End Site
                  {
                    OFFSET -1.62519 -0.234802 1.16502
                  }
                }
              }
              JOINT rMid1
              {
                OFFSET -8.24714 1.18213 3.41376
                CHANNELS 3 Zrotation Xrotation Yrotation
                JOINT rMid2
                {
                  OFFSET -3.10165 -0.590103 1.0647
                  CHANNELS 3 Zrotation Xrotation Yrotation
                  End Site
                  {
                    OFFSET -2.48547 -0.328903 0.83742
                  }
                }
              }
              JOINT rRing1
              {
                OFFSET -8.82822 0.546677 1.51678
                CHANNELS 3 Zrotation Xrotation Yrotation
                JOINT rRing2
                {
                  OFFSET -2.60934 -0.819778 -0.0198488
                  CHANNELS 3 Zrotation Xrotation Yrotation
                  End Site
                  {
                    OFFSET -2.33842 -0.294052 0.168128
                  }
                }
              }
              JOINT rPinky1
              {
                OFFSET -8.27202 -0.0477905 -0.4584
                CHANNELS 3 Zrotation Xrotation Yrotation
                JOINT rPinky2
                {
                  OFFSET -1.82734 -0.647385 -0.700984
                  CHANNELS 3 Zrotation Xrotation Yrotation
                  End Site
                  {
                    OFFSET -1.69225 -0.51767 -0.607171
                  }
                }
              }
            }
          }
        }
      }
      JOINT lCollar
      {
        OFFSET 2.68224 19.2634 -4.8768
        CHANNELS 3 Zrotation Xrotation Yrotation
        JOINT lShldr
        {
          OFFSET 8.77824 -1.95073 1.46304
          CHANNELS 3 Zrotation Xrotation Yrotation
          JOINT lForeArm
          {
            OFFSET 28.1742 -1.7115 0.48768
            CHANNELS 3 Zrotation Xrotation Yrotation
            JOINT lHand
            {
              OFFSET 22.5879 0.773209 7.07136
              CHANNELS 3 Zrotation Xrotation Yrotation
              JOINT lThumb1
              {
                OFFSET 1.2192 -0.487915 3.41376
                CHANNELS 3 Zrotation Xrotation Yrotation
                JOINT lThumb2
                {
                  OFFSET 3.37035 -0.52449 3.41376
                  CHANNELS 3 Zrotation Xrotation Yrotation
                  End Site
                  {
                    OFFSET 1.78271 -1.18214 1.43049
                  }
                }
              }
              JOINT lIndex1
              {
                OFFSET 7.75947 0.938293 5.60832
                CHANNELS 3 Zrotation Xrotation Yrotation
                JOINT lIndex2
                {
                  OFFSET 2.54057 -0.884171 1.56538
                  CHANNELS 3 Zrotation Xrotation Yrotation
                  End Site
                  {
                    OFFSET 1.62519 -0.234802 1.16502
                  }
                }
              }
              JOINT lMid1
              {
                OFFSET 8.24714 1.18213 3.41376
                CHANNELS 3 Zrotation Xrotation Yrotation
                JOINT lMid2
                {
                  OFFSET 3.10165 -0.590103 1.0647
                  CHANNELS 3 Zrotation Xrotation Yrotation
                  End Site
                  {
                    OFFSET 2.48547 -0.328903 0.83742
                  }
                }
              }
              JOINT lRing1
              {
                OFFSET 8.82822 0.546677 1.51678
                CHANNELS 3 Zrotation Xrotation Yrotation
                JOINT lRing2
                {
                  OFFSET 2.60934 -0.819778 -0.0198488
                  CHANNELS 3 Zrotation Xrotation Yrotation
                  End Site
                  {
                    OFFSET 2.33842 -0.294052 0.168128
                  }
                }
              }
              JOINT lPinky1
              {
                OFFSET 8.27202 -0.0477905 -0.4584
                CHANNELS 3 Zrotation Xrotation Yrotation
                JOINT lPinky2
                {
                  OFFSET 1.82734 -0.647385 -0.700984
                  CHANNELS 3 Zrotation Xrotation Yrotation
                  End Site
                  {
                    OFFSET 1.69225 -0.51767 -0.607171
                  }
                }
              }
            }
          }
        }
      }
    }
  }
  JOINT rButtock
  {
    OFFSET -8.77824 4.35084 1.2192
    CHANNELS 3 Zrotation Xrotation Yrotation
    JOINT rThigh
    {
      OFFSET 0 -1.70687 -2.19456
      CHANNELS 3 Zrotation Xrotation Yrotation
      JOINT rShin
      {
        OFFSET 0 -36.8199 0.73152
        CHANNELS 3 Zrotation Xrotation Yrotation
        JOINT rFoot
        {
          OFFSET 0.73152 -45.1104 -5.12064
          CHANNELS 3 Zrotation Xrotation Yrotation
          End Site
          {
            OFFSET -1.1221 -3.69964 12.103
          }
        }
      }
    }
  }
  JOINT lButtock
  {
    OFFSET 8.77824 4.35084 1.2192
    CHANNELS 3 Zrotation Xrotation Yrotation
    JOINT lThigh
    {
      OFFSET 0 -1.70687 -2.19456
      CHANNELS 3 Zrotation Xrotation Yrotation
      JOINT lShin
      {
        OFFSET 0 -36.8199 0.73152
        CHANNELS 3 Zrotation Xrotation Yrotation
        JOINT lFoot
        {
          OFFSET -0.73152 -45.1104 -5.12064
          CHANNELS 3 Zrotation Xrotation Yrotation
          End Site
          {
            OFFSET 1.1221 -3.69964 12.103
          }
        }
      }
    }
  }
}
MOTION
Frames:	8
Frame Time:	0.00833333
44.2945 86.0076 -221.239 -181.865 -158.444 -175.143 4.99362 3.47023 1.56046 1.0154 -8.2125 0.679901 0.688821 10.4455 5.45822 -3.68903 -20.3703 10.0542 -0.0 0.0 0.0 -0.0 0.0 0.0 -1.02253e-13 -3.87644e-14 -1.35174e-12 72.0948 38.1842 -8.26059 -20.1433 -13.1931 39.0291 -0.0735185 7.71273 1.09062 2.41566e-09 -3.15969e-09 1.30449e-09 4.18459e-09 -5.47069e-09 2.23451e-09 2.41567e-09 -3.15968e-09 1.30447e-09 7.73091 5.47488 0.417314 2.41566e-09 -3.15969e-09 1.30449e-09 2.90554 0.965183 0.102902 2.41567e-09 -3.15968e-09 1.30449e-09 10.2786 0.731801 0.0259123 2.41566e-09 -3.15968e-09 1.30449e-09 2.22167 -0.733487 -0.20892 -1.02204e-13 -3.87615e-14 -1.35184e-12 -55.9541 39.1453 -24.1162 23.1297 -17.5538 -46.9636 0.000420806 -0.585743 0.0823238 3.85395e-09 1.00307e-08 3.00141e-09 6.65915e-09 1.7353e-08 5.19325e-09 3.85395e-09 1.00307e-08 3.00142e-09 -7.73091 5.47488 -0.417314 3.85395e-09 1.00308e-08 3.00142e-09 -2.90554 0.965183 -0.102902 3.85395e-09 1.00307e-08 3.00141e-09 -10.2786 0.731801 -0.0259123 3.85396e-09 1.00307e-08 3.00141e-09 -2.22167 -0.733487 0.20892 -2.03217e-16 0.0 -3.88251e-19 10.5054 -20.26 12.808 -0.196705 37.2998 0.676364 -4.98973 -7.94073 -20.5371 2.03217e-16 0.0 3.88251e-19 -5.32445 -17.5962 -16.6353 0.25171 33.9636 -0.640746 -3.23036 -1.88189 -24.1086
44.1747 85.9311 -221.269 -181.901 -160.262 -175.038 5.0262 3.35659 1.68642 0.918209 -8.25826 0.709846 0.187379 10.4591 4.75506 -3.00789 -20.38 8.8373 -0.0 0.0 0.0 -0.0 0.0 0.0 -1.15313e-13 -5.43046e-14 -1.27412e-12 71.94 37.7062 -8.40272 -19.8463 -12.8209 38.3049 -0.0688256 7.46463 1.05512 2.40098e-09 -3.14336e-09 1.13324e-09 4.15739e-09 -5.43974e-09 1.93896e-09 2.40099e-09 -3.14336e-09 1.13322e-09 7.73091 5.47488 0.417314 2.40098e-09 -3.14336e-09 1.13324e-09 2.90554 0.965183 0.102902 2.40098e-09 -3.14336e-09 1.13324e-09 10.2786 0.731801 0.0259123 2.40098e-09 -3.14336e-09 1.13325e-09 2.22167 -0.733487 -0.20892 -1.15306e-13 -5.43017e-14 -1.27427e-12 -55.5181 40.367 -24.0547 23.2286 -17.7205 -47.2589 0.000860725 -0.810083 0.113857 3.68473e-09 1.16027e-08 3.09065e-09 6.36624e-09 2.00754e-08 5.34835e-09 3.68472e-09 1.16027e-08 3.09065e-09 -7.73091 5.47488 -0.417314 3.68473e-09 1.16027e-08 3.09065e-09 -2.90554 0.965183 -0.102902 3.68472e-09 1.16027e-08 3.09064e-09 -10.2786 0.731801 -0.0259123 3.68473e-09 1.16027e-08 3.09064e-09 -2.22167 -0.733487 0.20892 -2.03217e-16 0.0 -3.88251e-19 10.65 -20.1194 12.3436 -0.187416 37.0369 0.680799 -5.26226 -7.99415 -21.6836 2.03217e-16 0.0 3.88251e-19 -5.00903 -18.1234 -15.6073 0.260736 34.5101 -0.642778 -3.68878 -3.05306 -23.4604
44.0637 85.9027 -221.327 -181.924 -162.1 -174.867 5.05072 3.29897 1.78615 0.794703 -8.32646 0.730805 -0.342765 10.4252 4.0672 -2.25038 -20.3963 7.66632 -0.0 0.0 0.0 -0.0 0.0 0.0 -1.27134e-13 -8.38076e-14 -1.06563e-12 71.787 37.3174 -8.46948 -19.5287 -12.4313 37.5446 -0.0574625 6.82252 0.963462 2.24359e-09 -3.02095e-09 7.67841e-10 3.88205e-09 -5.22402e-09 1.30936e-09 2.24361e-09 -3.02094e-09 7.67825e-10 7.73091 5.47488 0.417314 2.2436e-09 -3.02095e-09 7.67838e-10 2.90554 0.965183 0.102902 2.2436e-09 -3.02094e-09 7.67838e-10 10.2786 0.731801 0.0259123 2.24359e-09 -3.02094e-09 7.67844e-10 2.22167 -0.733487 -0.20892 -1.27201e-13 -8.38055e-14 -1.06587e-12 -55.0845 41.5086 -23.9537 23.3073 -17.8555 -47.4911 0.00135839 -1.02546 0.144135 3.13122e-09 1.32438e-08 3.02716e-09 5.40899e-09 2.29189e-08 5.2395e-09 3.13122e-09 1.32438e-08 3.02717e-09 -7.73091 5.47488 -0.417314 3.13122e-09 1.32438e-08 3.02715e-09 -2.90554 0.965183 -0.102902 3.13121e-09 1.32438e-08 3.02716e-09 -10.2786 0.731801 -0.0259123 3.13122e-09 1.32438e-08 3.02715e-09 -2.22167 -0.733487 0.20892 -2.03217e-16 0.0 -3.88251e-19 10.7826 -19.9877 11.9598 -0.177527 36.756 0.685009 -5.53389 -8.05016 -22.8088 2.03217e-16 0.0 3.88251e-19 -4.70071 -18.7278 -14.4759 0.270704 35.1228 -0.648281 -4.10733 -4.15456 -22.8997
43.9902 85.8495 -221.338 -181.858 -163.876 -174.768 5.06021 3.29508 1.86245 0.663605 -8.41296 0.744829 -0.867208 10.3895 3.39074 -1.49479 -20.452 6.51634 -0.0 0.0 0.0 -0.0 0.0 0.0 -1.32289e-13 -1.07636e-13 -8.09339e-13 71.6169 36.9232 -8.48434 -19.1955 -12.0326 36.76 -0.048393 6.22674 0.878697 1.98766e-09 -2.77835e-09 3.67105e-10 3.43624e-09 -4.80069e-09 6.19529e-10 1.98768e-09 -2.77835e-09 3.67091e-10 7.73091 5.47488 0.417314 1.98766e-09 -2.77835e-09 3.67103e-10 2.90554 0.965183 0.102902 1.98766e-09 -2.77835e-09 3.67102e-10 10.2786 0.731801 0.0259123 1.98765e-09 -2.77834e-09 3.67107e-10 2.22167 -0.733487 -0.20892 -1.32427e-13 -1.07635e-13 -8.09662e-13 -54.6824 42.5511 -23.8067 23.364 -17.9539 -47.657 0.00175963 -1.17628 0.16534 2.43732e-09 1.41925e-08 2.81797e-09 4.20922e-09 2.45641e-08 4.87842e-09 2.43732e-09 1.41925e-08 2.81797e-09 -7.73091 5.47488 -0.417314 2.43732e-09 1.41924e-08 2.81795e-09 -2.90554 0.965183 -0.102902 2.43731e-09 1.41925e-08 2.81796e-09 -10.2786 0.731801 -0.0259123 2.43732e-09 1.41925e-08 2.81795e-09 -2.22167 -0.733487 0.20892 -2.03217e-16 0.0 -3.88251e-19 10.9084 -19.845 11.6341 -0.167227 36.463 0.689498 -5.82361 -8.13824 -23.9344 2.03217e-16 0.0 3.88251e-19 -4.38742 -19.3504 -13.3084 0.281478 35.7596 -0.654499 -4.53565 -5.34849 -22.3323
43.9936 85.7739 -221.398 -181.793 -165.912 -174.524 5.04782 3.34264 1.91813 0.543629 -8.51364 0.75397 -1.34933 10.398 2.72142 -0.8221 -20.5791 5.36146 -0.0 0.0 0.0 -0.0 0.0 0.0 -1.25352e-13 -1.06151e-13 -5.88303e-13 71.4093 36.4288 -8.47047 -18.8528 -11.634 35.9628 -0.0461238 6.11774 0.863108 1.67732e-09 -2.40146e-09 8.98507e-11 2.89764e-09 -4.14693e-09 1.43301e-10 1.67734e-09 -2.40146e-09 8.98379e-11 7.73091 5.47488 0.417314 1.67733e-09 -2.40146e-09 8.98507e-11 2.90554 0.965183 0.102902 1.67733e-09 -2.40146e-09 8.98483e-11 10.2786 0.731801 0.0259123 1.67732e-09 -2.40145e-09 8.98539e-11 2.22167 -0.733487 -0.20892 -1.25523e-13 -1.06151e-13 -5.88651e-13 -54.3403 43.4748 -23.6069 23.3965 -18.0105 -47.7536 0.00178689 -1.20694 0.169649 1.8469e-09 1.36872e-08 2.47007e-09 3.18878e-09 2.36918e-08 4.27687e-09 1.8469e-09 1.36872e-08 2.47007e-09 -7.73091 5.47488 -0.417314 1.8469e-09 1.36872e-08 2.47005e-09 -2.90554 0.965183 -0.102902 1.8469e-09 1.36872e-08 2.47007e-09 -10.2786 0.731801 -0.0259123 1.84691e-09 1.36872e-08 2.47005e-09 -2.22167 -0.733487 0.20892 -2.03217e-16 0.0 -3.88251e-19 11.0333 -19.6707 11.3438 -0.156698 36.1636 0.694767 -6.15297 -8.2865 -25.0828 2.03217e-16 0.0 3.88251e-19 -4.06445 -19.9325 -12.1736 0.292756 36.3782 -0.658561 -5.00901 -6.80274 -21.6687
43.986 85.6935 -221.439 -181.69 -167.784 -174.306 4.99653 3.47498 1.94272 0.424926 -8.64909 0.754733 -1.78243 10.4617 2.05189 -0.264537 -20.7872 4.18049 -0.0 0.0 0.0 -0.0 0.0 0.0 -9.82386e-14 -5.56217e-14 -4.02442e-13 71.1598 35.7839 -8.42091 -18.502 -11.2371 35.1561 -0.0536953 6.64797 0.938547 1.24672e-09 -1.75839e-09 -2.07655e-11 2.15289e-09 -3.03557e-09 -4.42733e-11 1.24674e-09 -1.75839e-09 -2.0778e-11 7.73091 5.47488 0.417314 1.24673e-09 -1.7584e-09 -2.07633e-11 2.90554 0.965183 0.102902 1.24672e-09 -1.75839e-09 -2.07663e-11 10.2786 0.731801 0.0259123 1.24672e-09 -1.75839e-09 -2.07591e-11 2.22167 -0.733487 -0.20892 -9.8383e-14 -5.56223e-14 -4.0272e-13 -54.0381 44.2977 -23.3478 23.4141 -18.0399 -47.8128 0.00158362 -1.10207 0.154902 1.39813e-09 1.07012e-08 1.83658e-09 2.41397e-09 1.85243e-08 3.18039e-09 1.39812e-09 1.07012e-08 1.83659e-09 -7.73091 5.47488 -0.417314 1.39813e-09 1.07011e-08 1.83657e-09 -2.90554 0.965183 -0.102902 1.39812e-09 1.07012e-08 1.83658e-09 -10.2786 0.731801 -0.0259123 1.39813e-09 1.07012e-08 1.83657e-09 -2.22167 -0.733487 0.20892 -2.03217e-16 0.0 -3.88251e-19 11.1341 -19.435 11.0911 -0.145963 35.8574 0.701282 -6.53839 -8.5067 -26.2713 2.03217e-16 0.0 3.88251e-19 -3.74822 -20.4461 -11.0237 0.304867 36.9691 -0.657498 -5.59709 -8.75764 -20.9068
43.8977 85.6208 -221.494 -181.572 -169.524 -174.166 4.91501 3.682 1.9385 0.302388 -8.81428 0.747365 -2.18302 10.5566 1.38613 0.216604 -21.059 2.98929 -0.0 0.0 0.0 -0.0 0.0 0.0 -5.6056e-14 2.73145e-14 -2.14865e-13 70.8819 35.047 -8.33014 -18.1393 -10.8371 34.3337 -0.0706914 7.5708 1.07051 6.98179e-10 -8.99381e-10 -4.97144e-11 1.20525e-09 -1.55248e-09 -8.99133e-11 6.98198e-10 -8.99381e-10 -4.97272e-11 7.73091 5.47488 0.417314 6.98192e-10 -8.99385e-10 -4.97097e-11 2.90554 0.965183 0.102902 6.98182e-10 -8.99379e-10 -4.9713e-11 10.2786 0.731801 0.0259123 6.98178e-10 -8.99379e-10 -4.97033e-11 2.22167 -0.733487 -0.20892 -5.61368e-14 2.73134e-14 -2.15014e-13 -53.7733 45.0214 -23.0279 23.4153 -18.0403 -47.825 0.00130354 -0.891521 0.125299 9.69879e-10 5.9151e-09 9.63364e-10 1.67521e-09 1.02405e-08 1.66859e-09 9.69874e-10 5.91511e-09 9.63371e-10 -7.73091 5.47488 -0.417314 9.6988e-10 5.91506e-09 9.63349e-10 -2.90554 0.965183 -0.102902 9.69876e-10 5.9151e-09 9.63365e-10 -10.2786 0.731801 -0.0259123 9.69885e-10 5.9151e-09 9.63356e-10 -2.22167 -0.733487 0.20892 -2.03217e-16 0.0 -3.88251e-19 11.2161 -19.1573 10.8855 -0.134901 35.5419 0.70865 -6.97168 -8.77833 -27.4857 2.03217e-16 0.0 3.88251e-19 -3.43751 -20.9247 -9.84386 0.317663 37.5543 -0.653469 -6.23054 -11.069 -20.0995
43.8464 85.5537 -221.492 -181.493 -171.199 -174.383 4.83505 3.8963 1.92732 0.2019 -8.96664 0.739533 -2.54799 10.6762 0.736666 0.645511 -21.3868 1.81714 -0.0 0.0 0.0 -0.0 0.0 0.0 -1.31628e-14 1.01737e-13 -5.34261e-14 70.5807 34.2874 -8.22249 -17.7636 -10.4341 33.4923 -0.095278 8.72804 1.23667 1.78161e-10 -8.34967e-11 -3.03686e-11 3.07366e-10 -1.44371e-10 -5.24481e-11 1.78177e-10 -8.34949e-11 -3.03816e-11 7.73091 5.47488 0.417314 1.78173e-10 -8.34984e-11 -3.03613e-11 2.90554 0.965183 0.102902 1.78162e-10 -8.34934e-11 -3.03649e-11 10.2786 0.731801 0.0259123 1.78159e-10 -8.34969e-11 -3.03528e-11 2.22167 -0.733487 -0.20892 -1.31724e-14 1.01736e-13 -5.34455e-14 -53.5993 45.6017 -22.6492 23.3817 -17.9818 -47.7247 0.00081396 -0.587446 0.0825563 5.67146e-10 1.12879e-09 1.46499e-10 9.80493e-10 1.95599e-09 2.54247e-10 5.6714e-10 1.1288e-09 1.46509e-10 -7.73091 5.47488 -0.417314 5.67147e-10 1.12876e-09 1.46489e-10 -2.90554 0.965183 -0.102902 5.67143e-10 1.12879e-09 1.46501e-10 -10.2786 0.731801 -0.0259123 5.67154e-10 1.12879e-09 1.46494e-10 -2.22167 -0.733487 0.20892 -2.03217e-16 0.0 -3.88251e-19 11.3273 -18.8911 10.7153 -0.123479 35.2198 0.716082 -7.43778 -9.08067 -28.701 2.03217e-16 0.0 3.88251e-19 -3.10746 -21.4042 -8.75481 0.330183 38.1385 -0.651325 -6.73767 -13.3256 -19.2281
